<?xml version="1.0" encoding="UTF-8"?>
<svg id="Layer_2" xmlns="http://www.w3.org/2000/svg" version="1.1" viewBox="0 0 887.9 887.9">
  <!-- Generator: Adobe Illustrator 29.8.2, SVG Export Plug-In . SVG Version: 2.1.1 Build 3)  -->
  <defs>
    <style>
      .st0 {
        isolation: isolate;
      }

      .st1 {
        fill: #fff;
      }
    </style>
  </defs>
  <circle cx="443.9" cy="443.9" r="443.9"/>
  <g id="Layer_1-2">
    <g id="Rock_water_Media_-_white" class="st0">
      <g class="st0">
        <path class="st1" d="M224,385l-33.2-47.9h-36.6v47.9h-39.8v-172.1h74.5c46,0,74.8,23.9,74.8,62.5s-13,44.8-35.4,54.3l38.6,55.3h-42.8ZM186.7,245.4h-32.5v60h32.5c24.3,0,36.6-11.3,36.6-30s-12.3-30-36.6-30Z"/>
        <path class="st1" d="M282.6,318.9c0-39.8,30.7-68.1,72.8-68.1s72.5,28.3,72.5,68.1-30.5,68.1-72.5,68.1-72.8-28.3-72.8-68.1ZM389,318.9c0-22.9-14.5-36.6-33.7-36.6s-33.9,13.8-33.9,36.6,14.8,36.6,33.9,36.6,33.7-13.8,33.7-36.6Z"/>
        <path class="st1" d="M443.6,318.9c0-39.8,30.7-68.1,73.8-68.1s49.7,12,59.3,33.7l-29.8,16c-7.1-12.5-17.7-18.2-29.8-18.2-19.4,0-34.7,13.5-34.7,36.6s15.2,36.6,34.7,36.6,22.6-5.4,29.8-18.2l29.8,16.2c-9.6,21.1-31.5,33.4-59.3,33.4-43,0-73.8-28.3-73.8-68.1Z"/>
        <path class="st1" d="M654.6,333.2l-18.4,18.2v33.7h-38.4v-182.5h38.4v103.3l56.1-53.1h45.7l-55.1,56.1,60,76.2h-46.5l-41.8-51.9Z"/>
      </g>
      <g class="st0">
        <path class="st1" d="M324.1,442.8l-47.9,132.3h-36.9l-29.8-82.1-30.7,82.1h-36.9l-47.7-132.3h36.1l31.2,89.5,32.5-89.5h32.5l31.5,89.5,32.2-89.5h33.9Z"/>
        <path class="st1" d="M454.7,499.6v75.5h-35.9v-16.5c-7.1,12-20.9,18.4-40.3,18.4-31,0-49.4-17.2-49.4-40.1s16.5-39.6,56.8-39.6h30.5c0-16.5-9.8-26.1-30.5-26.1s-28.5,4.7-38.1,12.3l-13.8-26.8c14.5-10.3,35.9-16,57-16,40.3,0,63.7,18.7,63.7,58.8ZM416.3,533.3v-13.5h-26.3c-18,0-23.6,6.6-23.6,15.5s8.1,16,21.6,16,23.9-5.9,28.3-18Z"/>
        <path class="st1" d="M574.7,568.7c-7.9,5.7-19.4,8.4-31.2,8.4-31.2,0-49.4-16-49.4-47.5v-54.3h-20.4v-29.5h20.4v-32.2h38.4v32.2h32.9v29.5h-32.9v53.9c0,11.3,6.1,17.5,16.5,17.5s11.3-1.7,15.5-4.9l10.3,27Z"/>
        <path class="st1" d="M721,519.7h-100.1c3.7,16.5,17.7,26.6,37.9,26.6s24.1-4.2,33.2-12.8l20.4,22.1c-12.3,14-30.7,21.4-54.6,21.4-45.7,0-75.5-28.8-75.5-68.1s30.2-68.1,70.6-68.1,68.9,26.1,68.9,68.6-.5,7.1-.7,10.3ZM620.4,497.4h65.2c-2.7-16.7-15.2-27.5-32.5-27.5s-30,10.6-32.7,27.5Z"/>
        <path class="st1" d="M829.5,440.8v35.4c-3.2-.2-5.7-.5-8.6-.5-21.1,0-35.2,11.6-35.2,36.9v62.5h-38.4v-132.3h36.6v17.5c9.3-12.8,25.1-19.4,45.5-19.4Z"/>
      </g>
      <g class="st0">
        <path class="st1" d="M191.8,610.9v74.4h-7.5v-59.5l-29.2,50h-3.7l-29.2-49.7v59.2h-7.5v-74.4h6.5l32.3,55.1,32-55.1h6.5Z"/>
        <path class="st1" d="M268.6,678.5v6.8h-52.6v-74.4h51v6.8h-43.1v26.5h38.5v6.7h-38.5v27.6h44.7Z"/>
        <path class="st1" d="M287.1,610.9h30.3c23.8,0,39.8,15.3,39.8,37.2s-16,37.2-39.8,37.2h-30.3v-74.4ZM317,678.5c19.8,0,32.5-12.5,32.5-30.4s-12.7-30.4-32.5-30.4h-22v60.8h22Z"/>
        <path class="st1" d="M374.9,610.9h7.9v74.4h-7.9v-74.4Z"/>
        <path class="st1" d="M453.6,665.4h-41.4l-8.9,19.9h-8.2l34-74.4h7.8l34,74.4h-8.3l-8.9-19.9ZM450.7,659.1l-17.8-39.9-17.8,39.9h35.7Z"/>
      </g>
    </g>
  </g>
</svg>